<?xml version="1.0" encoding="utf-8"?>
<!-- Generator: Adobe Illustrator 27.5.0, SVG Export Plug-In . SVG Version: 6.00 Build 0)  -->
<svg version="1.1" id="Layer_1" xmlns="http://www.w3.org/2000/svg" xmlns:xlink="http://www.w3.org/1999/xlink" x="0px" y="0px"
	 viewBox="0 0 2599 1733" style="enable-background:new 0 0 2599 1733;" xml:space="preserve">
<g>
	<g>
		<defs>
			
				<rect id="SVGID_1_" transform="matrix(-1 -1.224647e-16 1.224647e-16 -1 2598.0762 1732.0508)" width="2598.076" height="1732.051"/>
		</defs>
		<use xlink:href="#SVGID_1_"  style="overflow:visible;fill:#FCFCFC;"/>
		<clipPath id="SVGID_00000054247277462156326740000004273060844371397029_">
			<use xlink:href="#SVGID_1_"  style="overflow:visible;"/>
		</clipPath>
		<defs>
			
				<filter id="Adobe_OpacityMaskFilter" filterUnits="userSpaceOnUse" x="-577.985" y="158.398" width="1880.953" height="1704.607">
				<feColorMatrix  type="matrix" values="1 0 0 0 0  0 1 0 0 0  0 0 1 0 0  0 0 0 1 0"/>
			</filter>
		</defs>
		
			<mask maskUnits="userSpaceOnUse" x="-577.985" y="158.398" width="1880.953" height="1704.607" id="SVGID_00000046328006517945953820000005757498967532906379_">
			<g style="filter:url(#Adobe_OpacityMaskFilter);">
				
					<radialGradient id="SVGID_00000018929935026924124620000001190819410704257713_" cx="1226.1161" cy="-4109.9082" r="1204.6144" gradientTransform="matrix(0.9988 0.0489 0.0489 -0.9988 -446.6343 -2774.1907)" gradientUnits="userSpaceOnUse">
					<stop  offset="0" style="stop-color:#FFFFFF"/>
					<stop  offset="0.0978" style="stop-color:#E4E4E4"/>
					<stop  offset="0.5488" style="stop-color:#6B6B6B"/>
					<stop  offset="0.8583" style="stop-color:#1E1E1E"/>
					<stop  offset="1" style="stop-color:#000000"/>
				</radialGradient>
				
					<polygon style="clip-path:url(#SVGID_00000054247277462156326740000004273060844371397029_);fill:url(#SVGID_00000018929935026924124620000001190819410704257713_);" points="
					1565.034,2.981 -628.812,-104.478 -736.271,2089.369 1457.576,2196.827 				"/>
			</g>
		</mask>
		
			<g style="clip-path:url(#SVGID_00000054247277462156326740000004273060844371397029_);mask:url(#SVGID_00000046328006517945953820000005757498967532906379_);">
			<g>
				
					<linearGradient id="SVGID_00000138575269513352112180000011697271728113681839_" gradientUnits="userSpaceOnUse" x1="1214.6403" y1="-3028.6392" x2="677.9013" y2="-3028.6392" gradientTransform="matrix(0.9988 0.0489 0.0489 -0.9988 -446.6343 -2774.1907)">
					<stop  offset="0" style="stop-color:#D7E2D6"/>
					<stop  offset="0.4003" style="stop-color:#CBD6C7"/>
					<stop  offset="0.5" style="stop-color:#C7D2C3"/>
					<stop  offset="1" style="stop-color:#A7B3AB"/>
				</linearGradient>
				<path style="fill:url(#SVGID_00000138575269513352112180000011697271728113681839_);" d="M84.658,236.881
					c0.06-0.218,3.056,2.07,9.136,4.595c6.008,2.602,15.092,5,27.155,6.064c12.042,1.18,27.113,1.021,45.422,0.358
					c9.35-0.268,18.786-0.806,30.945-0.684c11.821,0.083,23.112,0.163,33.63,0.236c46.136,0.182,104.626,0.342,169.081,7.362
					c63.705,6.686,143.534,15.762,218.424,55.311c-83.882,12.689-153.341,30.745-222.401,33.615
					c-68.233,2.685-127.211-4.076-177.265-18.096c-25.691-7.412-44.319-15.222-63.689-23.267
					c-18.898-8.283-34.986-17.835-46.441-27.835C84.662,254.151,84.89,235.923,84.658,236.881z"/>
			</g>
			<g>
				
					<linearGradient id="SVGID_00000114056131326308537520000003460884403214745784_" gradientUnits="userSpaceOnUse" x1="34.1153" y1="-3200.447" x2="650.1795" y2="-3200.447" gradientTransform="matrix(0.9988 0.0489 0.0489 -0.9988 -446.6343 -2774.1907)">
					<stop  offset="0" style="stop-color:#D7E2D6"/>
					<stop  offset="0.4003" style="stop-color:#CBD6C7"/>
					<stop  offset="0.5" style="stop-color:#C7D2C3"/>
					<stop  offset="1" style="stop-color:#A7B3AB"/>
				</linearGradient>
				<path style="fill:url(#SVGID_00000114056131326308537520000003460884403214745784_);" d="M52.492,254.667
					c-0.355-0.153,2.329,4.821,2.599,15.775c0.402,10.938-3.296,27.401-12.707,45.708c-9.095,18.227-24.48,38.305-40.155,58.559
					c-16.375,21.558-37.59,45.634-62.922,69.67c-51.648,48.114-117.902,98.127-207.938,136.558
					c-44.027,17.977-92.734,32.861-145.306,40.844c-26.26,4.006-53.454,6.055-81.215,5.547c-13.796-0.301-27.467-0.899-42.189-3.185
					c-14.285-2.372-30.007-7.069-40.646-17.805c29.116,8.419,53.266-5.523,78.54-13.527c24.618-9.18,48.023-19.282,70.428-29.725
					c44.799-20.887,86.03-42.652,124.666-63.715c74.339-41.967,141.7-84.294,195.814-118.033
					c27.415-17.325,51.334-32.866,73.127-47.608c22.769-14.979,40.805-25.352,54.616-36.095
					C47.641,277.543,52.492,254.667,52.492,254.667z"/>
			</g>
			<g>
				
					<linearGradient id="SVGID_00000085968228937498043880000000437772278686836671_" gradientUnits="userSpaceOnUse" x1="268.8925" y1="-3420.8994" x2="637.5405" y2="-3420.8994" gradientTransform="matrix(0.9988 0.0489 0.0489 -0.9988 -446.6343 -2774.1907)">
					<stop  offset="0" style="stop-color:#D7E2D6"/>
					<stop  offset="0.4003" style="stop-color:#CBD6C7"/>
					<stop  offset="0.5" style="stop-color:#C7D2C3"/>
					<stop  offset="1" style="stop-color:#A7B3AB"/>
				</linearGradient>
				<path style="fill:url(#SVGID_00000085968228937498043880000000437772278686836671_);" d="M29.901,431.334
					c0,0,4.053,17.063,2.394,49.706c-1.611,32.483-10.536,80.085-34.211,134.027c-23.879,54.334-60.034,113.256-116.006,172.095
					c-57.872,59.291-144.707,104.208-239.283,110.801c77.838-57.416,132.081-115.898,173.878-171.154
					c41.858-57.903,81.477-109.834,113.291-151.991c32.141-42.447,57.274-77.19,74.028-102.67
					C18.532,449.242,29.901,431.334,29.901,431.334z"/>
			</g>
			<g>
				
					<linearGradient id="SVGID_00000122686117445135885700000008882005196911241106_" gradientUnits="userSpaceOnUse" x1="1085.3208" y1="-3211.2478" x2="647.5088" y2="-3211.2478" gradientTransform="matrix(0.9988 0.0489 0.0489 -0.9988 -446.6343 -2774.1907)">
					<stop  offset="0" style="stop-color:#D7E2D6"/>
					<stop  offset="0.4003" style="stop-color:#CBD6C7"/>
					<stop  offset="0.5" style="stop-color:#C7D2C3"/>
					<stop  offset="1" style="stop-color:#A7B3AB"/>
				</linearGradient>
				<path style="fill:url(#SVGID_00000122686117445135885700000008882005196911241106_);" d="M53.104,364.267
					c0.623-0.569,5.686,13.784,21.016,28.808c15.26,15.182,41.276,29.048,78.727,42.942c36.575,14.013,86.037,28.955,139.828,50.578
					c53.531,20.866,115.999,45.457,183.685,81.28c-76.507,16.142-147.673,16.998-210.497,3.592
					c-61.762-13.88-113.494-36.354-153.357-67.366c-19.633-15.311-35.56-32.572-46.803-49.7
					c-10.969-17.74-17.192-34.788-18.633-49.122C44.309,376.477,54.192,364.217,53.104,364.267z"/>
			</g>
			<g>
				
					<linearGradient id="SVGID_00000170956852379424890990000015333068138713050807_" gradientUnits="userSpaceOnUse" x1="346.195" y1="-3686.1626" x2="681.4373" y2="-3686.1626" gradientTransform="matrix(0.9988 0.0489 0.0489 -0.9988 -446.6343 -2774.1907)">
					<stop  offset="0" style="stop-color:#D7E2D6"/>
					<stop  offset="0.4003" style="stop-color:#CBD6C7"/>
					<stop  offset="0.5" style="stop-color:#C7D2C3"/>
					<stop  offset="1" style="stop-color:#A7B3AB"/>
				</linearGradient>
				<path style="fill:url(#SVGID_00000170956852379424890990000015333068138713050807_);" d="M50.524,660.877
					c0,0,1.183,4.936,3.132,13.06c1.581,8.715,5.139,21.995,6.305,39.142c4.063,34.488,3.901,85.619-9.394,148.122
					c-13.688,61.96-40.74,136.443-96.326,206.18c-27.136,34.862-62.051,68.185-104.846,93.497
					c-42.283,25.46-92.897,42.618-144.17,42.767c45.407-26.118,79.191-58.387,107.288-90.844
					c28.088-32.493,50.891-65.701,70.337-98.604c39.845-64.845,68.492-126.65,92.863-178.688
					c23.772-52.243,42.74-95.601,54.842-126.34C42.945,678.507,50.524,660.877,50.524,660.877z"/>
			</g>
			<g>
				
					<linearGradient id="SVGID_00000155854820709155140460000000717413553724632212_" gradientUnits="userSpaceOnUse" x1="1166.5054" y1="-3458.3994" x2="648.7026" y2="-3458.3994" gradientTransform="matrix(0.9988 0.0489 0.0489 -0.9988 -446.6343 -2774.1907)">
					<stop  offset="0" style="stop-color:#D7E2D6"/>
					<stop  offset="0.4003" style="stop-color:#CBD6C7"/>
					<stop  offset="0.5" style="stop-color:#C7D2C3"/>
					<stop  offset="1" style="stop-color:#A7B3AB"/>
				</linearGradient>
				<path style="fill:url(#SVGID_00000155854820709155140460000000717413553724632212_);" d="M39.049,610.19
					c0.651-0.554,6.682,15.083,26.749,29.387c19.599,14.781,53.86,28.406,99.233,42.872c45.19,14.539,101.986,30.43,166.247,51.682
					c67.124,21.713,133.323,55.764,214.113,83.925c-86.171,24.68-171.147,13.427-238.325,1.742
					c-70.62-12.778-130.635-36.648-177.061-66.381c-46.217-29.367-78.096-65.942-88.502-96.81
					C30.77,625.508,40.273,609.682,39.049,610.19z"/>
			</g>
			<g>
				
					<linearGradient id="SVGID_00000106133741263488266560000009588588851545636284_" gradientUnits="userSpaceOnUse" x1="489.557" y1="-3952.5415" x2="761.3237" y2="-3952.5415" gradientTransform="matrix(0.9988 0.0489 0.0489 -0.9988 -446.6343 -2774.1907)">
					<stop  offset="0" style="stop-color:#D7E2D6"/>
					<stop  offset="0.4003" style="stop-color:#CBD6C7"/>
					<stop  offset="0.5" style="stop-color:#C7D2C3"/>
					<stop  offset="1" style="stop-color:#A7B3AB"/>
				</linearGradient>
				<path style="fill:url(#SVGID_00000106133741263488266560000009588588851545636284_);" d="M115.708,914.896
					c0,0,1.213,4.829,3.207,12.771c1.935,8.548,4.737,21.33,6.633,38.058c4.221,33.387,6.36,83.162-3.729,144.46
					c-10.054,61.043-33.214,133.521-76.729,205.674c-21.849,36.176-48.025,71.414-80.806,105.851
					c-32.19,33.365-78.561,67.186-129.672,70.836c42.567-29.99,62.485-69.407,81.703-107.822
					c23.465-51.59,39.457-86.75,51.052-112.244c31.094-70.449,57.17-131.992,78.479-184.486
					c14.882-37.252,34.23-85.686,50.238-125.758C108.168,931.969,115.708,914.896,115.708,914.896z"/>
			</g>
			<g>
				
					<linearGradient id="SVGID_00000181049039962014274760000005995164445804546464_" gradientUnits="userSpaceOnUse" x1="1267.4547" y1="-3703.6296" x2="748.3286" y2="-3703.6296" gradientTransform="matrix(0.9988 0.0489 0.0489 -0.9988 -446.6343 -2774.1907)">
					<stop  offset="0" style="stop-color:#D7E2D6"/>
					<stop  offset="0.4003" style="stop-color:#CBD6C7"/>
					<stop  offset="0.5" style="stop-color:#C7D2C3"/>
					<stop  offset="1" style="stop-color:#A7B3AB"/>
				</linearGradient>
				<path style="fill:url(#SVGID_00000181049039962014274760000005995164445804546464_);" d="M122.285,908.569
					c0,0,93.525,7.737,148.324,12.269c45.303,3.892,99.224,9.648,160.586,19.781c30.517,4.524,66.322,12.634,99.254,22.096
					c33.978,9.297,68.364,20.335,107.602,27.13c-36.189,19.564-76.641,28.376-113.354,33.181c-37.857,4.525-69.559,5.961-103,6.104
					c-66.278-0.686-124.112-13.825-169.976-31.466c-45.96-17.862-79.627-40.172-100.282-58.243
					C130.68,921.301,122.285,908.569,122.285,908.569z"/>
			</g>
			<g>
				
					<linearGradient id="SVGID_00000050659707404496536200000006811855882918934659_" gradientUnits="userSpaceOnUse" x1="702.952" y1="-4364.9492" x2="927.7572" y2="-3941.4785" gradientTransform="matrix(0.9988 0.0489 0.0489 -0.9988 -446.6343 -2774.1907)">
					<stop  offset="0" style="stop-color:#D7E2D6"/>
					<stop  offset="0.4003" style="stop-color:#CBD6C7"/>
					<stop  offset="0.5" style="stop-color:#C7D2C3"/>
					<stop  offset="1" style="stop-color:#A7B3AB"/>
				</linearGradient>
				<path style="fill:url(#SVGID_00000050659707404496536200000006811855882918934659_);" d="M213.808,1061.987
					c0,0,11.284,13.198,24.943,42.574c13.671,29.17,27.706,75.412,32.339,133.122c2.506,28.767,2.966,60.247,1.737,93.258
					c-1.46,32.851-3.03,67.072-8.295,106.386c-5.335,38.585-14.452,79.969-30.882,121.482
					c-16.69,41.058-41.395,83.608-78.327,113.725c15.282-45.734,17.667-88.395,19.588-128.671
					c1.296-40.396,0.839-78.612,1.017-115.231c0.033-35.928,0.982-72.83,4.506-105.607c3.263-32.7,7.583-62.003,11.585-88.431
					c8.301-52.722,14.555-94.526,17.541-124.755C211.943,1082.984,213.808,1061.987,213.808,1061.987z"/>
			</g>
			<g>
				
					<linearGradient id="SVGID_00000126302548132146088760000018170100006178660228_" gradientUnits="userSpaceOnUse" x1="1335.5393" y1="-3850.8528" x2="871.5327" y2="-3850.8528" gradientTransform="matrix(0.9988 0.0489 0.0489 -0.9988 -446.6343 -2774.1907)">
					<stop  offset="0" style="stop-color:#D7E2D6"/>
					<stop  offset="0.4003" style="stop-color:#CBD6C7"/>
					<stop  offset="0.5" style="stop-color:#C7D2C3"/>
					<stop  offset="1" style="stop-color:#A7B3AB"/>
				</linearGradient>
				<path style="fill:url(#SVGID_00000126302548132146088760000018170100006178660228_);" d="M237.273,1079.383
					c0,0,16.01,0.009,36.332,0.026c30.736-1.096,67.73-2.417,94.883-3.381c20.229-0.52,42.649-0.738,67.806,0.756
					c12.569,0.76,25.794,1.971,39.748,3.998c13.341,1.578,26.547,3.248,40.399,5.63c55.167,9.352,115.948,27.03,182.228,57.623
					c-69.858,22.017-135.768,30.415-193.859,30.676c-29.883,0.434-54.951-2.259-78.986-5.803
					c-24.324-3.473-47.526-8.305-68.482-14.552c-42.109-12.219-74.562-30.913-93.643-46.976
					C244.389,1091.308,237.273,1079.383,237.273,1079.383z"/>
			</g>
			<g>
				
					<linearGradient id="SVGID_00000139280486851467152290000012325929423978889914_" gradientUnits="userSpaceOnUse" x1="1137.6545" y1="-4512.8765" x2="933.765" y2="-3924.7327" gradientTransform="matrix(0.9988 0.0489 0.0489 -0.9988 -446.6343 -2774.1907)">
					<stop  offset="0" style="stop-color:#D7E2D6"/>
					<stop  offset="0.4003" style="stop-color:#CBD6C7"/>
					<stop  offset="0.5" style="stop-color:#C7D2C3"/>
					<stop  offset="1" style="stop-color:#A7B3AB"/>
				</linearGradient>
				<path style="fill:url(#SVGID_00000139280486851467152290000012325929423978889914_);" d="M358.297,1231.441
					c0,0,3.074,1.944,9.042,6.655c6.294,4.546,14.125,12.648,23.16,24.676c17.512,23.967,34.716,65.959,39.99,117.515
					c6.374,51.353,0.879,112.844-7.82,173.589c-4.034,34.123-11.705,67.193-17.88,100.904c-5.949,33.7-10.997,68.638-3.105,108.809
					c-31.816-27.597-49.578-70.163-57.475-108.81c-8.168-39.174-9.205-75.384-10.33-107.041
					c-0.299-70.503,10.861-123.982,17.501-169.121c7.632-44.816,11.599-79.658,11.287-105.595
					c-0.487-12.646-1.133-23.344-2.632-30.288C358.957,1235.729,358.297,1231.441,358.297,1231.441z"/>
			</g>
			<g>
				
					<linearGradient id="SVGID_00000057844081990336092140000017117435048744202902_" gradientUnits="userSpaceOnUse" x1="1415.5427" y1="-3997.3833" x2="1009.344" y2="-3997.3833" gradientTransform="matrix(0.9988 0.0489 0.0489 -0.9988 -446.6343 -2774.1907)">
					<stop  offset="0" style="stop-color:#D7E2D6"/>
					<stop  offset="0.4003" style="stop-color:#CBD6C7"/>
					<stop  offset="0.5" style="stop-color:#C7D2C3"/>
					<stop  offset="1" style="stop-color:#A7B3AB"/>
				</linearGradient>
				<path style="fill:url(#SVGID_00000057844081990336092140000017117435048744202902_);" d="M615.595,1315.12
					c-10.398,4.364-24.815,9.888-38.869,12.995c-13.841,3.42-27.523,4.981-40.698,5.684c-26.395,1.196-50.975-2.813-72.166-9.747
					c-0.47-0.156-0.819-0.401-1.289-0.559c-3.077-5.639-7.02-10.755-12.302-14.542c-8.558-6.129-17.46-11.79-25.82-18.177
					c-3.714-3.511-7.325-7.094-10.312-11.284l5.248,7.529l0,0c-0.001,0.002-0.001,0.002,0.004,0.004l-0.004-0.004
					c-0.001,0.002,0.004,0.002,0.008,0.005c0.109,0.159,0.219,0.319,0.328,0.478c-7.814-11.493-15.407-22.581-25.485-32.196
					c-7.997-7.634-16.733-14.477-25.422-21.331c-0.594-2.247-0.951-3.781-0.951-3.781s3.205,1.013,8.435,2.667
					c5.221,1.996,13.336,4.206,22.915,6.703c19.68,4.652,46.362,7.703,78.18,6.516c15.955-0.571,33.343-2.14,51.947-4.785
					c9.275-1.417,18.934-2.751,28.735-4.796c9.156-1.941,19.716-4.183,33.847-7.183c26.509-5.274,58.063-8.818,91.276-3.328
					c33.281,5.291,64.859,21.241,89.415,43.686C701.779,1272.917,661.743,1296.377,615.595,1315.12z"/>
			</g>
			<g>
				
					<linearGradient id="SVGID_00000124883941458923386180000012021117272688364989_" gradientUnits="userSpaceOnUse" x1="1332.8331" y1="-4347.4233" x2="1121.1151" y2="-4326.5127" gradientTransform="matrix(0.9988 0.0489 0.0489 -0.9988 -446.6343 -2774.1907)">
					<stop  offset="0" style="stop-color:#D7E2D6"/>
					<stop  offset="0.4003" style="stop-color:#CBD6C7"/>
					<stop  offset="0.5" style="stop-color:#C7D2C3"/>
					<stop  offset="1" style="stop-color:#A7B3AB"/>
				</linearGradient>
				<path style="fill:url(#SVGID_00000124883941458923386180000012021117272688364989_);" d="M525.033,1371.718
					c0,0,10.264,10.06,25.426,31.008c15.03,20.978,35.001,52.913,51.871,96.71c16.725,44.548,30.103,97.605,29.736,165.38
					c-1.527,35.224-9.262,66.122-16.569,98.146c-6.677,32.045-17.059,63.472-9.789,100.042
					c-31.795-24.414-43.879-67.986-50.759-102.287c-6.86-35.418-8.349-69.031-11.878-94.495
					c-8.954-54.189-14.93-107.046-17.979-149.585c-3.18-43.217-3.697-79.317-2.866-104.805
					C522.931,1386.383,525.033,1371.718,525.033,1371.718z"/>
			</g>
			<g>
				
					<linearGradient id="SVGID_00000016797130646704655200000016118359442725416370_" gradientUnits="userSpaceOnUse" x1="1625.787" y1="-4086.3621" x2="1224.204" y2="-4086.3621" gradientTransform="matrix(0.9988 0.0489 0.0489 -0.9988 -446.6343 -2774.1907)">
					<stop  offset="0" style="stop-color:#D7E2D6"/>
					<stop  offset="0.4003" style="stop-color:#CBD6C7"/>
					<stop  offset="0.5" style="stop-color:#C7D2C3"/>
					<stop  offset="1" style="stop-color:#A7B3AB"/>
				</linearGradient>
				<path style="fill:url(#SVGID_00000016797130646704655200000016118359442725416370_);" d="M574.951,1394.233
					c0,0,10.882-5.755,29.9-13.488c19.118-7.945,45.754-18.812,79.25-29.632c33.567-10.658,74.556-21.873,125.05-25.99
					c49.754-4.019,111.426,0.115,169.89,27.702c-60.925,25.426-108.681,46.835-155.945,60.213
					c-46.568,13.475-91.206,18.659-129.305,16.599c-38.137-1.878-68.814-10.688-88.797-19.222
					C584.906,1401.65,574.951,1394.233,574.951,1394.233z"/>
			</g>
			<g>
				
					<linearGradient id="SVGID_00000047027945442803670840000001817091147818222986_" gradientUnits="userSpaceOnUse" x1="1350.1583" y1="-4338.2949" x2="1527.3632" y2="-4338.2949" gradientTransform="matrix(0.9988 0.0489 0.0489 -0.9988 -446.6343 -2774.1907)">
					<stop  offset="0" style="stop-color:#D7E2D6"/>
					<stop  offset="0.4003" style="stop-color:#CBD6C7"/>
					<stop  offset="0.5" style="stop-color:#C7D2C3"/>
					<stop  offset="1" style="stop-color:#A7B3AB"/>
				</linearGradient>
				<path style="fill:url(#SVGID_00000047027945442803670840000001817091147818222986_);" d="M698.81,1479.575
					c0,0,9.248,5.615,23.159,16.043c14.086,10.491,33.44,24.823,54.87,45.316c21.207,20.604,45.839,47.84,65.005,88.432
					c19.148,39.248,30.147,97.157,9.286,149.245c-32.872-47.286-62.063-74.092-86.055-104.187
					c-23.788-29.242-42.678-60.051-54.136-89.712c-11.649-29.545-15.568-56.758-15.389-75.588
					C695.793,1490.125,698.81,1479.575,698.81,1479.575z"/>
			</g>
			<g>
				
					<linearGradient id="SVGID_00000134959889571397370420000012668522684343589550_" gradientUnits="userSpaceOnUse" x1="1748.1099" y1="-4113.5439" x2="1295.0188" y2="-4268.6406" gradientTransform="matrix(0.9988 0.0489 0.0489 -0.9988 -446.6343 -2774.1907)">
					<stop  offset="0" style="stop-color:#D7E2D6"/>
					<stop  offset="0.4003" style="stop-color:#CBD6C7"/>
					<stop  offset="0.5" style="stop-color:#C7D2C3"/>
					<stop  offset="1" style="stop-color:#A7B3AB"/>
				</linearGradient>
				<path style="fill:url(#SVGID_00000134959889571397370420000012668522684343589550_);" d="M746.083,1486.254
					c0,0,8.221-4.416,21.26-10.567c13.122-6.061,30.28-14.349,50.353-22.265c20.234-7.908,43.965-15.698,75.1-19.601
					c15.693-1.932,32.619-2.712,52.615-1.683c20.423,0.523,47.248,5.935,64.731,21.74c-22.557,10.919-34.206,24.544-48.049,36.493
					c-14.531,12.398-30.376,22.324-46.106,29.384c-31.575,14.313-64.758,17.412-92.142,12.536
					c-27.55-4.722-48.206-16.733-60.42-27.195C751.06,1494.681,746.083,1486.254,746.083,1486.254z"/>
			</g>
			<g>
				
					<linearGradient id="SVGID_00000056391153330934914870000002734280388515102863_" gradientUnits="userSpaceOnUse" x1="1962.4749" y1="-4310.7446" x2="1521.7917" y2="-4310.7446" gradientTransform="matrix(0.9988 0.0489 0.0489 -0.9988 -446.6343 -2774.1907)">
					<stop  offset="0" style="stop-color:#D7E2D6"/>
					<stop  offset="0.4003" style="stop-color:#CBD6C7"/>
					<stop  offset="0.5" style="stop-color:#C7D2C3"/>
					<stop  offset="1" style="stop-color:#A7B3AB"/>
				</linearGradient>
				<path style="fill:url(#SVGID_00000056391153330934914870000002734280388515102863_);" d="M864.388,1567.972
					c0,0,12.466-0.194,34.582,0.654c22.12,0.926,53.645,2.425,92.469,5.395c38.845,3.09,85.115,7.564,137.826,16.224
					c26.325,4.36,54.386,9.82,83.677,16.916c30.536,6.143,57.285,19.377,90.027,14.516c-12.223,11.76-29.379,19.349-46.139,23.21
					c-16.928,3.904-32.231,6.16-47.758,8.106c-30.788,3.77-60.058,5.108-87.758,4.364c-55.358-1.404-103.939-11.317-142.774-24.667
					c-38.924-13.234-67.94-29.694-86.604-42.67C873.197,1577.107,864.388,1567.972,864.388,1567.972z"/>
			</g>
			
				<linearGradient id="SVGID_00000031887776062818014910000013324658927045780909_" gradientUnits="userSpaceOnUse" x1="618.1207" y1="-3598.0972" x2="1562.3239" y2="-3598.0972" gradientTransform="matrix(0.9988 0.0489 0.0489 -0.9988 -446.6343 -2774.1907)">
				<stop  offset="0" style="stop-color:#D7E2D6"/>
				<stop  offset="0.4003" style="stop-color:#CBD6C7"/>
				<stop  offset="0.5" style="stop-color:#C7D2C3"/>
				<stop  offset="1" style="stop-color:#A7B3AB"/>
			</linearGradient>
			<path style="fill:url(#SVGID_00000031887776062818014910000013324658927045780909_);" d="M75.999,167.645
				C17.053,311.357,2.08,467.212,20.851,618.716c19.86,151.508,78.766,296.809,165.835,421.214
				c20.676,31.934,45.356,60.882,68.695,90.777c25.654,27.922,49.75,57.323,77.54,83.14
				c52.968,54.289,112.283,101.653,172.26,147.603c121.529,90.173,254.128,163.974,390.555,228.112
				c2.957,1.389,6.481,0.119,7.872-2.838c1.381-2.939,0.094-6.46-2.824-7.87c-135.222-65.219-266.309-139.938-385.822-230.481
				c-58.952-46.121-117.166-93.548-168.869-147.631c-27.181-25.734-50.592-54.948-75.589-82.666
				c-22.643-29.65-46.645-58.325-66.597-89.858C119.684,905.286,63.835,763.011,45.978,615.538
				C28.85,468.857,46.089,315.064,102.93,180.446l0.574-1.351c3.2-7.579-0.351-16.319-7.93-19.52
				c-7.58-3.198-16.316,0.35-19.516,7.929L75.999,167.645z"/>
		</g>
		<defs>
			
				<filter id="Adobe_OpacityMaskFilter_00000181772877488862609160000013750949285679396500_" filterUnits="userSpaceOnUse" x="-431.016" y="-487.931" width="2132.34" height="1418.325">
				<feColorMatrix  type="matrix" values="1 0 0 0 0  0 1 0 0 0  0 0 1 0 0  0 0 0 1 0"/>
			</filter>
		</defs>
		
			<mask maskUnits="userSpaceOnUse" x="-431.016" y="-487.931" width="2132.34" height="1418.325" id="SVGID_00000111892131338302515170000001905764843640101561_">
			<g style="filter:url(#Adobe_OpacityMaskFilter_00000181772877488862609160000013750949285679396500_);">
				
					<radialGradient id="SVGID_00000178924436614402775910000015441473847947487650_" cx="56.5896" cy="-4724.8906" r="1204.6532" gradientTransform="matrix(0.87 -0.493 -0.493 -0.87 -1414.1392 -3635.5393)" gradientUnits="userSpaceOnUse">
					<stop  offset="0" style="stop-color:#FFFFFF"/>
					<stop  offset="0.0978" style="stop-color:#E4E4E4"/>
					<stop  offset="0.5488" style="stop-color:#6B6B6B"/>
					<stop  offset="0.8583" style="stop-color:#1E1E1E"/>
					<stop  offset="1" style="stop-color:#000000"/>
				</radialGradient>
				
					<polygon style="clip-path:url(#SVGID_00000054247277462156326740000004273060844371397029_);fill:url(#SVGID_00000178924436614402775910000015441473847947487650_);" points="
					1056.803,-1253.811 -854.216,-170.984 228.61,1740.036 2139.63,657.209 				"/>
			</g>
		</mask>
		
			<g style="clip-path:url(#SVGID_00000054247277462156326740000004273060844371397029_);mask:url(#SVGID_00000111892131338302515170000001905764843640101561_);">
			<g>
				
					<linearGradient id="SVGID_00000061436289015188947970000015994205238809547921_" gradientUnits="userSpaceOnUse" x1="45.1195" y1="-3643.5913" x2="-491.6306" y2="-3643.5913" gradientTransform="matrix(0.87 -0.493 -0.493 -0.87 -1414.1392 -3635.5393)">
					<stop  offset="0" style="stop-color:#D7E2D6"/>
					<stop  offset="0.4003" style="stop-color:#CBD6C7"/>
					<stop  offset="0.5" style="stop-color:#C7D2C3"/>
					<stop  offset="1" style="stop-color:#A7B3AB"/>
				</linearGradient>
				<path style="fill:url(#SVGID_00000061436289015188947970000015994205238809547921_);" d="M-68.808-264.254
					c-0.066-0.216,3.69,0.114,10.177-1.005c6.468-1.015,15.425-3.85,26.186-9.404c10.805-5.445,23.454-13.642,38.568-23.996
					c7.756-5.228,15.441-10.732,25.779-17.133c10.031-6.253,19.614-12.226,28.54-17.791c39.076-24.528,88.578-55.682,146.791-84.231
					c57.401-28.431,129.702-63.467,214.131-70.117c-64.082,55.593-113.108,108.007-169.92,147.376
					c-56.212,38.771-109.658,64.608-159.447,79.541c-25.672,7.482-45.588,10.849-66.256,14.414
					c-20.397,3.112-39.1,3.647-54.127,1.326C-59.566-249.664-69.125-265.187-68.808-264.254z"/>
			</g>
			<g>
				
					<linearGradient id="SVGID_00000016047998088121818930000005363070005589972635_" gradientUnits="userSpaceOnUse" x1="-1135.4346" y1="-3815.3987" x2="-519.3538" y2="-3815.3987" gradientTransform="matrix(0.87 -0.493 -0.493 -0.87 -1414.1392 -3635.5393)">
					<stop  offset="0" style="stop-color:#D7E2D6"/>
					<stop  offset="0.4003" style="stop-color:#CBD6C7"/>
					<stop  offset="0.5" style="stop-color:#C7D2C3"/>
					<stop  offset="1" style="stop-color:#A7B3AB"/>
				</linearGradient>
				<path style="fill:url(#SVGID_00000016047998088121818930000005363070005589972635_);" d="M-86.47-232.019
					c-0.382,0.061,4.546,2.827,10.635,11.937c6.191,9.026,11.874,24.914,13.716,45.415c2.066,20.265-0.191,45.459-2.599,70.956
					c-2.302,26.974-7.347,58.664-15.891,92.523c-17.898,68.28-47.118,145.978-102.629,226.613
					c-27.581,38.741-60.77,77.373-100.917,112.241c-20.043,17.433-41.923,33.712-65.649,48.134
					c-11.817,7.126-23.687,13.934-37.347,19.878c-13.339,5.638-29.134,10.08-43.865,6.7c29.103-8.463,42.048-33.162,59.12-53.445
					c15.887-20.926,30.258-41.981,43.601-62.79c26.676-41.613,49.868-82.059,71.243-120.523
					C-216.696,90.396-182.426,18.6-154.756-38.854c13.894-29.303,25.79-55.228,36.316-79.342
					c11.224-24.836,20.913-43.248,26.835-59.713C-78.331-210.097-86.47-232.019-86.47-232.019z"/>
			</g>
			<g>
				
					<linearGradient id="SVGID_00000158711437573790384500000015090579935750862465_" gradientUnits="userSpaceOnUse" x1="-900.656" y1="-4035.8567" x2="-531.9952" y2="-4035.8567" gradientTransform="matrix(0.87 -0.493 -0.493 -0.87 -1414.1392 -3635.5393)">
					<stop  offset="0" style="stop-color:#D7E2D6"/>
					<stop  offset="0.4003" style="stop-color:#CBD6C7"/>
					<stop  offset="0.5" style="stop-color:#C7D2C3"/>
					<stop  offset="1" style="stop-color:#A7B3AB"/>
				</linearGradient>
				<path style="fill:url(#SVGID_00000158711437573790384500000015090579935750862465_);" d="M-11.047-70.673
					c0,0,12.553,12.248,28.613,40.715C33.582-1.651,51.506,43.34,60.361,101.581c8.892,58.68,9.865,127.804-5.947,207.458
					c-17.176,81.053-66.513,165.455-142.891,221.62c35.049-90.15,49.592-168.579,55.346-237.622
					c4.39-71.313,10.081-136.383,14.408-189.02c4.448-53.057,7.096-95.856,7.62-126.346C-11.073-49.46-11.047-70.673-11.047-70.673z
					"/>
			</g>
			<g>
				
					<linearGradient id="SVGID_00000013192712977263898330000009912917415388813233_" gradientUnits="userSpaceOnUse" x1="-84.206" y1="-3826.2041" x2="-522.0253" y2="-3826.2041" gradientTransform="matrix(0.87 -0.493 -0.493 -0.87 -1414.1392 -3635.5393)">
					<stop  offset="0" style="stop-color:#D7E2D6"/>
					<stop  offset="0.4003" style="stop-color:#CBD6C7"/>
					<stop  offset="0.5" style="stop-color:#C7D2C3"/>
					<stop  offset="1" style="stop-color:#A7B3AB"/>
				</linearGradient>
				<path style="fill:url(#SVGID_00000013192712977263898330000009912917415388813233_);" d="M-27.322-139.748
					c0.222-0.814,12.178,8.604,33.168,13.096c21.015,4.664,50.412,2.461,89.487-5.835c38.398-7.727,88.18-21.563,145.194-32.07
					c56.39-11.007,122.323-23.648,198.672-29.592c-56.003,54.566-115.672,93.36-175.922,115.643
					C203.67-57.194,147.94-48.506,97.671-53.383c-24.778-2.433-47.469-8.497-66.13-16.952c-18.758-9.12-33.135-20.195-42.021-31.534
					C-28.22-124.728-26.429-140.373-27.322-139.748z"/>
			</g>
			<g>
				
					<linearGradient id="SVGID_00000030487075014679971550000002471824481676199346_" gradientUnits="userSpaceOnUse" x1="-823.355" y1="-4301.126" x2="-488.1004" y2="-4301.126" gradientTransform="matrix(0.87 -0.493 -0.493 -0.87 -1414.1392 -3635.5393)">
					<stop  offset="0" style="stop-color:#D7E2D6"/>
					<stop  offset="0.4003" style="stop-color:#CBD6C7"/>
					<stop  offset="0.5" style="stop-color:#C7D2C3"/>
					<stop  offset="1" style="stop-color:#A7B3AB"/>
				</linearGradient>
				<path style="fill:url(#SVGID_00000030487075014679971550000002471824481676199346_);" d="M129.173,112.232
					c0,0,3.64,3.537,9.632,9.359c5.999,6.517,16.108,15.833,26.266,29.697c21.883,26.964,49.099,70.252,71.302,130.171
					c21.582,59.672,38.572,137.073,28.914,225.727c-4.277,43.971-15.95,90.802-38.565,135.082
					c-22.104,44.129-55.688,85.703-98.928,113.257c24.391-46.358,35.672-91.694,42.048-134.147
					c6.348-42.479,7.85-82.734,6.677-120.937c-1.025-76.101-9.885-143.643-17.133-200.647
					c-7.863-56.856-15.032-103.636-21.251-136.08C132.201,131.181,129.173,112.232,129.173,112.232z"/>
			</g>
			<g>
				
					<linearGradient id="SVGID_00000145739187787801661330000007306781757026616486_" gradientUnits="userSpaceOnUse" x1="-3.0216" y1="-4073.3616" x2="-520.8343" y2="-4073.3616" gradientTransform="matrix(0.87 -0.493 -0.493 -0.87 -1414.1392 -3635.5393)">
					<stop  offset="0" style="stop-color:#D7E2D6"/>
					<stop  offset="0.4003" style="stop-color:#CBD6C7"/>
					<stop  offset="0.5" style="stop-color:#C7D2C3"/>
					<stop  offset="1" style="stop-color:#A7B3AB"/>
				</linearGradient>
				<path style="fill:url(#SVGID_00000145739187787801661330000007306781757026616486_);" d="M92.362,75.546
					c0.254-0.817,13.714,9.168,38.321,10.518c24.466,2.005,60.702-4.813,106.776-16.863c45.957-11.891,102.445-28.848,168.106-45.27
					C473.892,6.366,548.038-0.278,631.361-19.705C571.76,47.245,493.945,83.196,430.937,109.261
					c-66.501,26.984-129.976,38.921-185.106,38.637c-54.757-0.087-101.258-13.935-126.562-34.448
					C93.563,92.917,93.125,74.461,92.362,75.546z"/>
			</g>
			<g>
				
					<linearGradient id="SVGID_00000070114335237696996840000012483718017599321228_" gradientUnits="userSpaceOnUse" x1="-679.9925" y1="-4567.5122" x2="-408.2149" y2="-4567.5122" gradientTransform="matrix(0.87 -0.493 -0.493 -0.87 -1414.1392 -3635.5393)">
					<stop  offset="0" style="stop-color:#D7E2D6"/>
					<stop  offset="0.4003" style="stop-color:#CBD6C7"/>
					<stop  offset="0.5" style="stop-color:#C7D2C3"/>
					<stop  offset="1" style="stop-color:#A7B3AB"/>
				</linearGradient>
				<path style="fill:url(#SVGID_00000070114335237696996840000012483718017599321228_);" d="M320.135,291.976
					c0,0,3.609,3.431,9.541,9.075c6.206,6.187,15.412,15.487,25.964,28.605c21.426,25.95,49.862,66.858,74.129,124.046
					c24.161,56.953,43.366,130.578,45.201,214.817c0.892,42.252-2.372,86.027-11.646,132.658
					c-9.347,45.41-30.432,98.791-71.662,129.217c19.921-48.109,15.662-92.068,11.349-134.803
					c-7.774-56.141-13.071-94.402-16.913-122.144c-11.416-76.155-22.308-142.1-32.387-197.851
					c-7.354-39.435-16.918-90.706-24.831-133.126C322.898,310.434,320.135,291.976,320.135,291.976z"/>
			</g>
			<g>
				
					<linearGradient id="SVGID_00000033362700286187231780000013613521392548741034_" gradientUnits="userSpaceOnUse" x1="97.9282" y1="-4318.5977" x2="-421.2086" y2="-4318.5977" gradientTransform="matrix(0.87 -0.493 -0.493 -0.87 -1414.1392 -3635.5393)">
					<stop  offset="0" style="stop-color:#D7E2D6"/>
					<stop  offset="0.4003" style="stop-color:#CBD6C7"/>
					<stop  offset="0.5" style="stop-color:#C7D2C3"/>
					<stop  offset="1" style="stop-color:#A7B3AB"/>
				</linearGradient>
				<path style="fill:url(#SVGID_00000033362700286187231780000013613521392548741034_);" d="M322.307,283.112
					c0,0,83.156-43.495,131.879-68.981c40.357-20.948,88.993-44.93,146.257-69.195c28.203-12.503,62.793-24.805,95.678-34.428
					c33.68-10.323,68.637-19.391,105.425-34.641c-20.109,35.889-49.573,64.974-78.02,88.674
					c-29.564,24.075-55.58,42.247-83.758,60.257c-56.364,34.877-112.254,54.715-160.442,64.346
					c-48.386,9.494-88.765,8.656-115.883,4.438C336.21,289.378,322.307,283.112,322.307,283.112z"/>
			</g>
			<g>
				
					<linearGradient id="SVGID_00000113333757331951770230000017566665945999807164_" gradientUnits="userSpaceOnUse" x1="-466.5916" y1="-4979.9321" x2="-241.7804" y2="-4556.4502" gradientTransform="matrix(0.87 -0.493 -0.493 -0.87 -1414.1392 -3635.5393)">
					<stop  offset="0" style="stop-color:#D7E2D6"/>
					<stop  offset="0.4003" style="stop-color:#CBD6C7"/>
					<stop  offset="0.5" style="stop-color:#C7D2C3"/>
					<stop  offset="1" style="stop-color:#A7B3AB"/>
				</linearGradient>
				<path style="fill:url(#SVGID_00000113333757331951770230000017566665945999807164_);" d="M481.705,363.77
					c0,0,16.594,5.114,43.85,22.627c27.155,17.332,63.749,48.893,98.537,95.171c17.507,22.964,34.735,49.315,51.356,77.863
					c16.34,28.536,33.32,58.288,49.905,94.32c16.135,35.453,30.57,75.295,38.895,119.158c7.864,43.617,9.753,92.783-5.338,137.985
					c-11.554-46.815-32.361-84.134-52.284-119.19c-20.516-34.824-41.345-66.866-60.785-97.901
					c-19.191-30.372-38.131-62.058-52.689-91.636c-14.736-29.373-26.761-56.441-37.519-80.911
					c-21.191-48.984-38.271-87.649-51.919-114.786C491.362,382.508,481.705,363.77,481.705,363.77z"/>
			</g>
			<g>
				
					<linearGradient id="SVGID_00000142890818934440923640000013057070799839818631_" gradientUnits="userSpaceOnUse" x1="166.0126" y1="-4465.8262" x2="-298.0034" y2="-4465.8262" gradientTransform="matrix(0.87 -0.493 -0.493 -0.87 -1414.1392 -3635.5393)">
					<stop  offset="0" style="stop-color:#D7E2D6"/>
					<stop  offset="0.4003" style="stop-color:#CBD6C7"/>
					<stop  offset="0.5" style="stop-color:#C7D2C3"/>
					<stop  offset="1" style="stop-color:#A7B3AB"/>
				</linearGradient>
				<path style="fill:url(#SVGID_00000142890818934440923640000013057070799839818631_);" d="M510.836,365.915
					c0,0,13.531-8.557,30.71-19.414c25.382-17.368,55.931-38.275,78.356-53.615c16.812-11.26,35.638-23.439,57.692-35.634
					c11.026-6.082,22.847-12.133,35.721-17.886c12.115-5.804,24.166-11.457,37.144-16.854
					c51.612-21.611,112.421-39.191,184.786-48.8c-47.244,55.973-98.437,98.327-147.377,129.624
					c-25.015,16.353-47.636,27.488-69.838,37.352c-22.409,10.079-44.597,18.407-65.644,24.34
					c-42.114,12.203-79.533,13.77-104.247,10.406C523.228,372.184,510.836,365.915,510.836,365.915z"/>
			</g>
			<g>
				
					<linearGradient id="SVGID_00000069363971932345756790000010770653933267821476_" gradientUnits="userSpaceOnUse" x1="-31.8812" y1="-5127.8628" x2="-235.7747" y2="-4539.7075" gradientTransform="matrix(0.87 -0.493 -0.493 -0.87 -1414.1392 -3635.5393)">
					<stop  offset="0" style="stop-color:#D7E2D6"/>
					<stop  offset="0.4003" style="stop-color:#CBD6C7"/>
					<stop  offset="0.5" style="stop-color:#C7D2C3"/>
					<stop  offset="1" style="stop-color:#A7B3AB"/>
				</linearGradient>
				<path style="fill:url(#SVGID_00000069363971932345756790000010770653933267821476_);" d="M694.431,429.643
					c0,0,3.637-0.001,11.199,0.786c7.749,0.474,18.699,3.129,32.768,8.458c27.617,10.881,64.616,37.155,96.652,77.893
					c32.858,39.977,61.11,94.87,86.257,150.845c14.846,30.987,26.055,63.032,38.872,94.817
					c13.002,31.654,27.428,63.874,55.585,93.591c-41.644-6.295-79.422-32.756-106.768-61.184
					c-27.857-28.728-48.105-58.766-65.99-84.911c-37.97-59.407-57.15-110.56-75.687-152.249
					c-17.526-41.946-32.813-73.506-46.953-95.253c-7.176-10.424-13.446-19.117-18.426-24.181
					C697.283,432.913,694.431,429.643,694.431,429.643z"/>
			</g>
			<g>
				
					<linearGradient id="SVGID_00000022560893334862581430000011931648521017059251_" gradientUnits="userSpaceOnUse" x1="246.0162" y1="-4612.3613" x2="-160.1911" y2="-4612.3613" gradientTransform="matrix(0.87 -0.493 -0.493 -0.87 -1414.1392 -3635.5393)">
					<stop  offset="0" style="stop-color:#D7E2D6"/>
					<stop  offset="0.4003" style="stop-color:#CBD6C7"/>
					<stop  offset="0.5" style="stop-color:#C7D2C3"/>
					<stop  offset="1" style="stop-color:#A7B3AB"/>
				</linearGradient>
				<path style="fill:url(#SVGID_00000022560893334862581430000011931648521017059251_);" d="M956.582,362.698
					c-6.45,9.25-15.676,21.629-25.888,31.773c-9.864,10.294-20.589,18.932-31.344,26.574c-21.661,15.13-44.573,24.893-66.186,30.371
					c-0.481,0.12-0.906,0.099-1.388,0.217c-5.617-3.118-11.685-5.331-18.173-5.704c-10.51-0.6-21.058-0.621-31.539-1.544
					c-5.016-0.98-9.984-2.075-14.749-4.017l8.462,3.553l0,0c0.001,0.002,0.001,0.002,0.006,0.002l-0.006-0.002
					c0.001,0.002,0.005,0,0.01-0.001c0.177,0.076,0.356,0.153,0.533,0.229c-12.749-5.531-25.097-10.836-38.755-13.569
					c-10.841-2.171-21.882-3.28-32.89-4.422c-1.703-1.581-2.826-2.686-2.826-2.686s3.25-0.858,8.553-2.258
					c5.479-1.107,13.517-3.581,22.947-6.596c19.116-6.598,43.292-18.294,69.539-36.318c13.175-9.017,27.026-19.645,41.329-31.832
					c7.079-6.158,14.525-12.453,21.713-19.424c6.697-6.538,14.42-14.081,24.754-24.175c19.576-18.638,44.339-38.512,75.337-51.641
					c30.949-13.334,66.161-16.751,98.915-10.924C1006.82,280.937,985.545,322.175,956.582,362.698z"/>
			</g>
			<g>
				
					<linearGradient id="SVGID_00000163062771987343444870000001958946376622488453_" gradientUnits="userSpaceOnUse" x1="163.2976" y1="-4962.4077" x2="-48.4177" y2="-4941.498" gradientTransform="matrix(0.87 -0.493 -0.493 -0.87 -1414.1392 -3635.5393)">
					<stop  offset="0" style="stop-color:#D7E2D6"/>
					<stop  offset="0.4003" style="stop-color:#CBD6C7"/>
					<stop  offset="0.5" style="stop-color:#C7D2C3"/>
					<stop  offset="1" style="stop-color:#A7B3AB"/>
				</linearGradient>
				<path style="fill:url(#SVGID_00000163062771987343444870000001958946376622488453_);" d="M910.345,458.963
					c0,0,14.053,3.009,38.07,12.596c23.921,9.683,57.878,25.981,95.561,53.96c37.962,28.69,77.648,66.36,113.595,123.819
					c17.553,30.576,27.547,60.82,38.505,91.785c11.501,30.646,19.542,62.753,45.247,89.76
					c-39.922-3.617-73.441-33.966-97.605-59.265c-24.743-26.254-43.983-53.857-60.586-73.483
					c-36.554-40.992-69.88-82.453-95.212-116.763c-25.806-34.812-45.555-65.035-58.488-87.014
					C916.415,472.479,910.345,458.963,910.345,458.963z"/>
			</g>
			<g>
				
					<linearGradient id="SVGID_00000139978416091038469960000010714812776735786386_" gradientUnits="userSpaceOnUse" x1="456.2646" y1="-4701.3438" x2="54.672" y2="-4701.3438" gradientTransform="matrix(0.87 -0.493 -0.493 -0.87 -1414.1392 -3635.5393)">
					<stop  offset="0" style="stop-color:#D7E2D6"/>
					<stop  offset="0.4003" style="stop-color:#CBD6C7"/>
					<stop  offset="0.5" style="stop-color:#C7D2C3"/>
					<stop  offset="1" style="stop-color:#A7B3AB"/>
				</linearGradient>
				<path style="fill:url(#SVGID_00000139978416091038469960000010714812776735786386_);" d="M964.565,451.282
					c0,0,6.115-10.685,18.046-27.392c11.902-16.94,28.594-40.371,51.105-67.431c22.658-26.962,51.289-58.364,91.748-88.855
					c39.886-30.012,94.203-59.51,158.356-67.48c-37.874,54.074-66.767,97.71-99.544,134.297
					c-32.136,36.297-67.077,64.556-100.367,83.197c-33.225,18.816-63.856,27.783-85.305,31.263
					C976.943,452.222,964.565,451.282,964.565,451.282z"/>
			</g>
			<g>
				
					<linearGradient id="SVGID_00000114066349703163181800000005926681422114649228_" gradientUnits="userSpaceOnUse" x1="180.6279" y1="-4953.2822" x2="357.8346" y2="-4953.2822" gradientTransform="matrix(0.87 -0.493 -0.493 -0.87 -1414.1392 -3635.5393)">
					<stop  offset="0" style="stop-color:#D7E2D6"/>
					<stop  offset="0.4003" style="stop-color:#CBD6C7"/>
					<stop  offset="0.5" style="stop-color:#C7D2C3"/>
					<stop  offset="1" style="stop-color:#A7B3AB"/>
				</linearGradient>
				<path style="fill:url(#SVGID_00000114066349703163181800000005926681422114649228_);" d="M1114.865,457.126
					c0,0,10.818-0.203,28.149,1.165c17.512,1.328,41.532,3.083,70.601,8.933c28.939,6.063,64.321,15.897,102.229,39.939
					c37.174,22.916,77.446,65.958,87.686,121.126c-53.069-22.366-92.072-29.397-128.442-41.989
					c-35.741-11.98-68.183-27.905-93.731-46.835c-25.647-18.73-43.516-39.625-53.439-55.63
					C1117.959,467.653,1114.865,457.126,1114.865,457.126z"/>
			</g>
			<g>
				
					<linearGradient id="SVGID_00000140704737558485845240000011795567624266691006_" gradientUnits="userSpaceOnUse" x1="578.5886" y1="-4728.5273" x2="125.4879" y2="-4883.6274" gradientTransform="matrix(0.87 -0.493 -0.493 -0.87 -1414.1392 -3635.5393)">
					<stop  offset="0" style="stop-color:#D7E2D6"/>
					<stop  offset="0.4003" style="stop-color:#CBD6C7"/>
					<stop  offset="0.5" style="stop-color:#C7D2C3"/>
					<stop  offset="1" style="stop-color:#A7B3AB"/>
				</linearGradient>
				<path style="fill:url(#SVGID_00000140704737558485845240000011795567624266691006_);" d="M1158.378,437.48
					c0,0,4.583-8.129,12.309-20.3c7.845-12.141,17.907-28.323,30.631-45.748c12.865-17.506,28.748-36.783,52.965-56.736
					c12.225-10.027,26.108-19.741,43.553-29.569c17.535-10.484,43.093-20.262,66.319-16.261
					c-13.217,21.292-15.77,39.035-21.074,56.536c-5.644,18.248-13.721,35.111-23.234,49.491
					c-19.02,28.984-45.397,49.353-71.142,59.884c-25.802,10.749-49.68,11.651-65.596,9.345
					C1167.091,441.936,1158.378,437.48,1158.378,437.48z"/>
			</g>
			<g>
				
					<linearGradient id="SVGID_00000117651836044695516450000010376930833947851157_" gradientUnits="userSpaceOnUse" x1="792.9568" y1="-4925.7344" x2="352.2647" y2="-4925.7344" gradientTransform="matrix(0.87 -0.493 -0.493 -0.87 -1414.1392 -3635.5393)">
					<stop  offset="0" style="stop-color:#D7E2D6"/>
					<stop  offset="0.4003" style="stop-color:#CBD6C7"/>
					<stop  offset="0.5" style="stop-color:#C7D2C3"/>
					<stop  offset="1" style="stop-color:#A7B3AB"/>
				</linearGradient>
				<path style="fill:url(#SVGID_00000117651836044695516450000010376930833947851157_);" d="M1302.047,443.234
					c0,0,10.428-6.833,29.567-17.948c19.185-11.051,46.622-26.648,81.011-44.909c34.472-18.169,75.959-39.142,125.125-60.023
					c24.573-10.399,51.203-20.797,79.746-30.471c29.085-11.145,58.765-14.273,83.827-35.896
					c-4.035,16.474-14.47,32.064-26.566,44.292c-12.213,12.354-23.935,22.446-36.013,32.397
					c-23.996,19.656-48.01,36.445-71.81,50.634c-47.521,28.427-93.87,46.041-133.823,55.537
					c-39.966,9.641-73.287,11.257-95.997,10.279C1314.376,446.239,1302.047,443.234,1302.047,443.234z"/>
			</g>
			
				<linearGradient id="SVGID_00000023246792086104969760000001283760515085140631_" gradientUnits="userSpaceOnUse" x1="-551.4148" y1="-4213.0649" x2="392.7975" y2="-4213.0649" gradientTransform="matrix(0.87 -0.493 -0.493 -0.87 -1414.1392 -3635.5393)">
				<stop  offset="0" style="stop-color:#D7E2D6"/>
				<stop  offset="0.4003" style="stop-color:#CBD6C7"/>
				<stop  offset="0.5" style="stop-color:#C7D2C3"/>
				<stop  offset="1" style="stop-color:#A7B3AB"/>
			</linearGradient>
			<path style="fill:url(#SVGID_00000023246792086104969760000001283760515085140631_);" d="M-113.162-318.118
				C-86.084-165.165-15.359-25.476,81.549,92.484c97.829,117.381,225.328,208.63,365.442,267.16
				c34.553,15.919,70.889,27.173,106.601,39.946c36.611,9.867,72.698,21.817,109.989,28.763
				c73.794,17.532,149.246,25.818,224.5,32.555c150.915,11.172,302.426,2.59,452.002-16.204c3.241-0.408,5.54-3.367,5.133-6.609
				c-0.405-3.222-3.377-5.508-6.596-5.138c-149.136,17.236-299.86,24.234-449.271,11.67c-74.479-7.429-149.035-16.358-221.65-34.392
				c-36.732-7.201-72.139-19.36-108.087-29.406c-34.992-12.937-70.61-24.324-104.336-40.293
				c-136.923-58.807-260.22-149.134-354.199-264.179C8.138-38.408-59.569-177.566-83.561-321.709l-0.239-1.449
				c-1.351-8.115-9.025-13.6-17.142-12.251c-8.114,1.353-13.598,9.025-12.247,17.14L-113.162-318.118z"/>
		</g>
		<defs>
			
				<filter id="Adobe_OpacityMaskFilter_00000054266072688953842090000001874708048557141144_" filterUnits="userSpaceOnUse" x="-220.998" y="319.907" width="1437.496" height="956.15">
				<feColorMatrix  type="matrix" values="1 0 0 0 0  0 1 0 0 0  0 0 1 0 0  0 0 0 1 0"/>
			</filter>
		</defs>
		
			<mask maskUnits="userSpaceOnUse" x="-220.998" y="319.907" width="1437.496" height="956.15" id="SVGID_00000076587874177173428600000013187570411516958625_">
			<g style="filter:url(#Adobe_OpacityMaskFilter_00000054266072688953842090000001874708048557141144_);">
				
					<radialGradient id="SVGID_00000049208329434095743820000014069893139329824397_" cx="-404.3673" cy="-5041.9697" r="812.1051" gradientTransform="matrix(0.87 -0.493 -0.493 -0.87 -1414.1392 -3635.5393)" gradientUnits="userSpaceOnUse">
					<stop  offset="0" style="stop-color:#FFFFFF"/>
					<stop  offset="0.0978" style="stop-color:#E4E4E4"/>
					<stop  offset="0.5488" style="stop-color:#6B6B6B"/>
					<stop  offset="0.8583" style="stop-color:#1E1E1E"/>
					<stop  offset="1" style="stop-color:#000000"/>
				</radialGradient>
				
					<polygon style="clip-path:url(#SVGID_00000054247277462156326740000004273060844371397029_);fill:url(#SVGID_00000049208329434095743820000014069893139329824397_);" points="
					782.001,-196.404 -506.293,533.573 223.683,1821.868 1511.978,1091.891 				"/>
			</g>
		</mask>
		
			<g style="clip-path:url(#SVGID_00000054247277462156326740000004273060844371397029_);mask:url(#SVGID_00000076587874177173428600000013187570411516958625_);">
			<g>
				
					<linearGradient id="SVGID_00000183959168403365190930000009819276319161185415_" gradientUnits="userSpaceOnUse" x1="-412.1" y1="-4313.0225" x2="-773.9449" y2="-4313.0225" gradientTransform="matrix(0.87 -0.493 -0.493 -0.87 -1414.1392 -3635.5393)">
					<stop  offset="0" style="stop-color:#D7E2D6"/>
					<stop  offset="0.4003" style="stop-color:#CBD6C7"/>
					<stop  offset="0.5" style="stop-color:#C7D2C3"/>
					<stop  offset="1" style="stop-color:#A7B3AB"/>
				</linearGradient>
				<path style="fill:url(#SVGID_00000183959168403365190930000009819276319161185415_);" d="M23.181,470.696
					c-0.044-0.146,2.487,0.077,6.861-0.678c4.361-0.684,10.399-2.595,17.654-6.339c7.284-3.67,15.811-9.196,26-16.177
					c5.228-3.524,10.409-7.234,17.379-11.55c6.762-4.215,13.222-8.242,19.24-11.993c26.343-16.535,59.714-37.537,98.958-56.784
					c38.696-19.166,87.437-42.786,144.354-47.269c-43.2,37.478-76.25,72.812-114.55,99.352
					c-37.895,26.137-73.925,43.555-107.49,53.621c-17.306,5.043-30.732,7.313-44.666,9.717c-13.751,2.098-26.359,2.459-36.489,0.894
					C29.412,480.532,22.968,470.067,23.181,470.696z"/>
			</g>
			<g>
				
					<linearGradient id="SVGID_00000062154624182033736710000000646123189999198379_" gradientUnits="userSpaceOnUse" x1="-1207.959" y1="-4428.8447" x2="-792.634" y2="-4428.8447" gradientTransform="matrix(0.87 -0.493 -0.493 -0.87 -1414.1392 -3635.5393)">
					<stop  offset="0" style="stop-color:#D7E2D6"/>
					<stop  offset="0.4003" style="stop-color:#CBD6C7"/>
					<stop  offset="0.5" style="stop-color:#C7D2C3"/>
					<stop  offset="1" style="stop-color:#A7B3AB"/>
				</linearGradient>
				<path style="fill:url(#SVGID_00000062154624182033736710000000646123189999198379_);" d="M11.275,492.427
					c-0.257,0.041,3.065,1.905,7.169,8.047c4.174,6.085,8.004,16.795,9.247,30.616c1.393,13.661-0.129,30.646-1.753,47.835
					c-1.552,18.184-4.953,39.547-10.713,62.373C3.16,687.329-16.538,739.708-53.96,794.067
					c-18.594,26.117-40.967,52.161-68.032,75.667c-13.512,11.752-28.262,22.727-44.257,32.449
					c-7.966,4.803-15.968,9.393-25.177,13.401c-8.992,3.8-19.64,6.795-29.572,4.517c19.62-5.706,28.347-22.356,39.856-36.029
					c10.71-14.107,20.398-28.301,29.393-42.329c17.983-28.053,33.617-55.319,48.027-81.249
					c27.206-50.712,50.308-99.113,68.962-137.845c9.366-19.755,17.386-37.232,24.482-53.488
					c7.566-16.742,14.098-29.155,18.09-40.255C16.762,507.206,11.275,492.427,11.275,492.427z"/>
			</g>
			<g>
				
					<linearGradient id="SVGID_00000180326073530353587520000008168463302308355985_" gradientUnits="userSpaceOnUse" x1="-1049.6849" y1="-4577.4639" x2="-801.1556" y2="-4577.4639" gradientTransform="matrix(0.87 -0.493 -0.493 -0.87 -1414.1392 -3635.5393)">
					<stop  offset="0" style="stop-color:#D7E2D6"/>
					<stop  offset="0.4003" style="stop-color:#CBD6C7"/>
					<stop  offset="0.5" style="stop-color:#C7D2C3"/>
					<stop  offset="1" style="stop-color:#A7B3AB"/>
				</linearGradient>
				<path style="fill:url(#SVGID_00000180326073530353587520000008168463302308355985_);" d="M62.12,601.197
					c0,0,8.462,8.257,19.29,27.448c10.796,19.083,22.88,49.413,28.849,88.676c5.994,39.558,6.65,86.157-4.01,139.855
					c-11.579,54.641-44.839,111.54-96.328,149.403c23.628-60.774,33.432-113.645,37.311-160.19
					c2.959-48.075,6.796-91.941,9.713-127.426c2.999-35.767,4.784-64.621,5.137-85.175C62.103,615.497,62.12,601.197,62.12,601.197z
					"/>
			</g>
			<g>
				
					<linearGradient id="SVGID_00000045583615939303583570000016991034542136513198_" gradientUnits="userSpaceOnUse" x1="-499.283" y1="-4436.1289" x2="-794.4349" y2="-4436.1289" gradientTransform="matrix(0.87 -0.493 -0.493 -0.87 -1414.1392 -3635.5393)">
					<stop  offset="0" style="stop-color:#D7E2D6"/>
					<stop  offset="0.4003" style="stop-color:#CBD6C7"/>
					<stop  offset="0.5" style="stop-color:#C7D2C3"/>
					<stop  offset="1" style="stop-color:#A7B3AB"/>
				</linearGradient>
				<path style="fill:url(#SVGID_00000045583615939303583570000016991034542136513198_);" d="M51.149,554.631
					c0.15-0.549,8.21,5.801,22.36,8.829c14.167,3.144,33.985,1.659,60.326-3.934c25.886-5.209,59.446-14.536,97.881-21.619
					c38.014-7.421,82.462-15.943,133.933-19.949c-37.754,36.786-77.98,62.938-118.597,77.959
					c-40.184,14.368-77.753,20.224-111.641,16.937c-16.704-1.64-32.001-5.728-44.581-11.428
					c-12.645-6.149-22.337-13.615-28.328-21.259C50.543,564.757,51.751,554.209,51.149,554.631z"/>
			</g>
			<g>
				
					<linearGradient id="SVGID_00000047757862389880563900000006360853549498009765_" gradientUnits="userSpaceOnUse" x1="-997.5732" y1="-4756.293" x2="-771.5648" y2="-4756.293" gradientTransform="matrix(0.87 -0.493 -0.493 -0.87 -1414.1392 -3635.5393)">
					<stop  offset="0" style="stop-color:#D7E2D6"/>
					<stop  offset="0.4003" style="stop-color:#CBD6C7"/>
					<stop  offset="0.5" style="stop-color:#C7D2C3"/>
					<stop  offset="1" style="stop-color:#A7B3AB"/>
				</linearGradient>
				<path style="fill:url(#SVGID_00000047757862389880563900000006360853549498009765_);" d="M156.648,724.501
					c0,0,2.454,2.385,6.493,6.309c4.044,4.393,10.859,10.674,17.707,20.02c14.752,18.178,33.099,47.36,48.068,87.754
					c14.549,40.227,26.002,92.406,19.492,152.171c-2.883,29.642-10.753,61.214-25.999,91.064
					c-14.901,29.75-37.541,57.776-66.691,76.352c16.443-31.251,24.048-61.814,28.346-90.434c4.28-28.637,5.292-55.774,4.501-81.528
					c-0.691-51.303-6.664-96.836-11.551-135.264c-5.301-38.329-10.134-69.865-14.327-91.737
					C158.689,737.275,156.648,724.501,156.648,724.501z"/>
			</g>
			<g>
				
					<linearGradient id="SVGID_00000115515910871663818400000018014069846212470951_" gradientUnits="userSpaceOnUse" x1="-444.5539" y1="-4602.748" x2="-793.6321" y2="-4602.748" gradientTransform="matrix(0.87 -0.493 -0.493 -0.87 -1414.1392 -3635.5393)">
					<stop  offset="0" style="stop-color:#D7E2D6"/>
					<stop  offset="0.4003" style="stop-color:#CBD6C7"/>
					<stop  offset="0.5" style="stop-color:#C7D2C3"/>
					<stop  offset="1" style="stop-color:#A7B3AB"/>
				</linearGradient>
				<path style="fill:url(#SVGID_00000115515910871663818400000018014069846212470951_);" d="M131.833,699.769
					c0.171-0.551,9.245,6.181,25.833,7.091c16.494,1.351,40.922-3.245,71.982-11.368c30.981-8.016,69.062-19.448,113.327-30.518
					c46.062-11.84,96.047-16.32,152.218-29.416c-40.179,45.134-92.637,69.369-135.113,86.941
					c-44.831,18.191-87.622,26.238-124.788,26.046c-36.914-0.059-68.263-9.394-85.321-23.223
					C132.642,711.48,132.347,699.038,131.833,699.769z"/>
			</g>
			<g>
				
					<linearGradient id="SVGID_00000097475400524638119760000017779311972446068650_" gradientUnits="userSpaceOnUse" x1="-900.927" y1="-4935.8745" x2="-717.7109" y2="-4935.8745" gradientTransform="matrix(0.87 -0.493 -0.493 -0.87 -1414.1392 -3635.5393)">
					<stop  offset="0" style="stop-color:#D7E2D6"/>
					<stop  offset="0.4003" style="stop-color:#CBD6C7"/>
					<stop  offset="0.5" style="stop-color:#C7D2C3"/>
					<stop  offset="1" style="stop-color:#A7B3AB"/>
				</linearGradient>
				<path style="fill:url(#SVGID_00000097475400524638119760000017779311972446068650_);" d="M285.384,845.673
					c0,0,2.432,2.313,6.432,6.117c4.185,4.171,10.391,10.44,17.503,19.284c14.445,17.494,33.614,45.072,49.974,83.624
					c16.288,38.394,29.235,88.028,30.472,144.816c0.601,28.484-1.599,57.994-7.851,89.43c-6.302,30.613-20.515,66.599-48.31,87.111
					c13.429-32.433,10.559-62.066,7.651-90.877c-5.241-37.846-8.812-63.64-11.401-82.342c-7.696-51.339-15.039-95.796-21.833-133.38
					c-4.958-26.585-11.405-61.149-16.74-89.745C287.247,858.116,285.384,845.673,285.384,845.673z"/>
			</g>
			<g>
				
					<linearGradient id="SVGID_00000048498467465773096180000004711558014962743711_" gradientUnits="userSpaceOnUse" x1="-376.4995" y1="-4768.0713" x2="-726.47" y2="-4768.0713" gradientTransform="matrix(0.87 -0.493 -0.493 -0.87 -1414.1392 -3635.5393)">
					<stop  offset="0" style="stop-color:#D7E2D6"/>
					<stop  offset="0.4003" style="stop-color:#CBD6C7"/>
					<stop  offset="0.5" style="stop-color:#C7D2C3"/>
					<stop  offset="1" style="stop-color:#A7B3AB"/>
				</linearGradient>
				<path style="fill:url(#SVGID_00000048498467465773096180000004711558014962743711_);" d="M286.848,839.698
					c0,0,56.058-29.322,88.905-46.503c27.206-14.122,59.995-30.289,98.598-46.647c19.013-8.429,42.331-16.722,64.501-23.21
					c22.705-6.959,46.271-13.072,71.071-23.353c-13.556,24.195-33.419,43.802-52.596,59.779
					c-19.931,16.23-37.469,28.481-56.464,40.622c-37.997,23.512-75.676,36.885-108.161,43.378
					c-32.619,6.4-59.841,5.835-78.122,2.991C296.221,843.922,286.848,839.698,286.848,839.698z"/>
			</g>
			<g>
				
					<linearGradient id="SVGID_00000100343444846879016260000004324976799320029343_" gradientUnits="userSpaceOnUse" x1="-757.065" y1="-5213.9038" x2="-605.5107" y2="-4928.4175" gradientTransform="matrix(0.87 -0.493 -0.493 -0.87 -1414.1392 -3635.5393)">
					<stop  offset="0" style="stop-color:#D7E2D6"/>
					<stop  offset="0.4003" style="stop-color:#CBD6C7"/>
					<stop  offset="0.5" style="stop-color:#C7D2C3"/>
					<stop  offset="1" style="stop-color:#A7B3AB"/>
				</linearGradient>
				<path style="fill:url(#SVGID_00000100343444846879016260000004324976799320029343_);" d="M394.304,894.073
					c0,0,11.187,3.447,29.561,15.253c18.306,11.684,42.976,32.961,66.428,64.159c11.802,15.481,23.416,33.245,34.622,52.491
					c11.015,19.238,22.463,39.295,33.642,63.586c10.877,23.901,20.608,50.759,26.221,80.329c5.301,29.404,6.575,62.549-3.599,93.022
					c-7.789-31.561-21.815-56.719-35.247-80.351c-13.831-23.476-27.872-45.077-40.977-65.999
					c-12.938-20.475-25.706-41.836-35.52-61.775c-9.934-19.802-18.041-38.05-25.293-54.546c-14.285-33.022-25.799-59.088-35-77.382
					C400.815,906.705,394.304,894.073,394.304,894.073z"/>
			</g>
			<g>
				
					<linearGradient id="SVGID_00000092423820197660775880000004979227172861159820_" gradientUnits="userSpaceOnUse" x1="-330.6011" y1="-4867.3237" x2="-643.4127" y2="-4867.3237" gradientTransform="matrix(0.87 -0.493 -0.493 -0.87 -1414.1392 -3635.5393)">
					<stop  offset="0" style="stop-color:#D7E2D6"/>
					<stop  offset="0.4003" style="stop-color:#CBD6C7"/>
					<stop  offset="0.5" style="stop-color:#C7D2C3"/>
					<stop  offset="1" style="stop-color:#A7B3AB"/>
				</linearGradient>
				<path style="fill:url(#SVGID_00000092423820197660775880000004979227172861159820_);" d="M413.943,895.518
					c0,0,9.121-5.769,20.702-13.088c17.111-11.708,37.706-25.803,52.823-36.144c11.334-7.591,24.025-15.801,38.892-24.023
					c7.433-4.1,15.401-8.179,24.081-12.058c8.168-3.913,16.292-7.724,25.04-11.362c34.794-14.569,75.787-26.42,124.572-32.898
					c-31.849,37.734-66.36,66.286-99.352,87.384c-16.864,11.024-32.113,18.531-47.08,25.18
					c-15.107,6.795-30.064,12.409-44.253,16.409c-28.391,8.226-53.617,9.283-70.277,7.015
					C422.297,899.745,413.943,895.518,413.943,895.518z"/>
			</g>
			<g>
				
					<linearGradient id="SVGID_00000013182398903963537930000006376139865852799125_" gradientUnits="userSpaceOnUse" x1="-464.009" y1="-5313.6294" x2="-601.4616" y2="-4917.1309" gradientTransform="matrix(0.87 -0.493 -0.493 -0.87 -1414.1392 -3635.5393)">
					<stop  offset="0" style="stop-color:#D7E2D6"/>
					<stop  offset="0.4003" style="stop-color:#CBD6C7"/>
					<stop  offset="0.5" style="stop-color:#C7D2C3"/>
					<stop  offset="1" style="stop-color:#A7B3AB"/>
				</linearGradient>
				<path style="fill:url(#SVGID_00000013182398903963537930000006376139865852799125_);" d="M537.712,938.481
					c0,0,2.452-0.001,7.549,0.529c5.224,0.319,12.606,2.11,22.09,5.703c18.618,7.335,43.561,25.048,65.157,52.511
					c22.151,26.95,41.197,63.955,58.149,101.691c10.009,20.89,17.565,42.492,26.206,63.92c8.765,21.34,18.49,43.06,37.472,63.094
					c-28.074-4.244-53.541-22.082-71.976-41.247c-18.78-19.366-32.43-39.617-44.487-57.242
					c-25.596-40.048-38.527-74.533-51.023-102.637c-11.815-28.277-22.121-49.553-31.653-64.214
					c-4.838-7.027-9.064-12.888-12.422-16.302C539.634,940.685,537.712,938.481,537.712,938.481z"/>
			</g>
			<g>
				
					<linearGradient id="SVGID_00000015331820555099063640000010885428031201023883_" gradientUnits="userSpaceOnUse" x1="-276.667" y1="-4966.1094" x2="-550.5079" y2="-4966.1094" gradientTransform="matrix(0.87 -0.493 -0.493 -0.87 -1414.1392 -3635.5393)">
					<stop  offset="0" style="stop-color:#D7E2D6"/>
					<stop  offset="0.4003" style="stop-color:#CBD6C7"/>
					<stop  offset="0.5" style="stop-color:#C7D2C3"/>
					<stop  offset="1" style="stop-color:#A7B3AB"/>
				</linearGradient>
				<path style="fill:url(#SVGID_00000015331820555099063640000010885428031201023883_);" d="M714.438,893.35
					c-4.348,6.235-10.568,14.581-17.452,21.42c-6.65,6.939-13.88,12.763-21.13,17.914c-14.603,10.2-30.048,16.782-44.619,20.474
					c-0.324,0.081-0.611,0.067-0.936,0.147c-3.786-2.102-7.877-3.595-12.251-3.846c-7.085-0.404-14.196-0.418-21.262-1.041
					c-3.382-0.66-6.73-1.399-9.942-2.708l5.704,2.395l0,0c0.001,0.001,0.001,0.001,0.004,0.001l-0.004-0.001
					c0.001,0.001,0.003,0,0.007-0.001c0.12,0.051,0.24,0.103,0.359,0.154c-8.595-3.728-16.919-7.305-26.126-9.147
					c-7.308-1.464-14.751-2.211-22.173-2.982c-1.148-1.066-1.905-1.811-1.905-1.811s2.191-0.578,5.766-1.523
					c3.694-0.746,9.113-2.414,15.469-4.446c12.886-4.448,29.185-12.333,46.879-24.483c8.882-6.08,18.219-13.244,27.861-21.46
					c4.772-4.151,9.792-8.395,14.638-13.094c4.515-4.408,9.721-9.493,16.688-16.298c13.196-12.564,29.891-25.962,50.788-34.813
					c20.863-8.989,44.602-11.293,66.683-7.364C748.306,838.231,733.963,866.031,714.438,893.35z"/>
			</g>
			<g>
				
					<linearGradient id="SVGID_00000008835774197030111390000002529359841628899741_" gradientUnits="userSpaceOnUse" x1="-332.4315" y1="-5202.0898" x2="-475.1571" y2="-5187.9932" gradientTransform="matrix(0.87 -0.493 -0.493 -0.87 -1414.1392 -3635.5393)">
					<stop  offset="0" style="stop-color:#D7E2D6"/>
					<stop  offset="0.4003" style="stop-color:#CBD6C7"/>
					<stop  offset="0.5" style="stop-color:#C7D2C3"/>
					<stop  offset="1" style="stop-color:#A7B3AB"/>
				</linearGradient>
				<path style="fill:url(#SVGID_00000008835774197030111390000002529359841628899741_);" d="M683.268,958.246
					c0,0,9.474,2.028,25.664,8.491c16.126,6.528,39.018,17.515,64.422,36.377c25.592,19.341,52.346,44.736,76.579,83.471
					c11.833,20.613,18.571,41.001,25.958,61.876c7.753,20.66,13.174,42.304,30.503,60.511c-26.913-2.439-49.51-22.898-65.799-39.953
					c-16.68-17.699-29.65-36.307-40.843-49.537c-24.642-27.635-47.108-55.586-64.186-78.714
					c-17.397-23.468-30.71-43.843-39.429-58.66C687.36,967.358,683.268,958.246,683.268,958.246z"/>
			</g>
			<g>
				
					<linearGradient id="SVGID_00000139986989571389034150000017627971659648335272_" gradientUnits="userSpaceOnUse" x1="-134.9303" y1="-5026.0957" x2="-405.6602" y2="-5026.0957" gradientTransform="matrix(0.87 -0.493 -0.493 -0.87 -1414.1392 -3635.5393)">
					<stop  offset="0" style="stop-color:#D7E2D6"/>
					<stop  offset="0.4003" style="stop-color:#CBD6C7"/>
					<stop  offset="0.5" style="stop-color:#C7D2C3"/>
					<stop  offset="1" style="stop-color:#A7B3AB"/>
				</linearGradient>
				<path style="fill:url(#SVGID_00000139986989571389034150000017627971659648335272_);" d="M719.819,953.068
					c0,0,4.123-7.203,12.166-18.466c8.024-11.419,19.276-27.215,34.452-45.457c15.274-18.176,34.577-39.346,61.851-59.901
					c26.89-20.232,63.506-40.118,106.755-45.49c-25.532,36.454-45.01,65.87-67.106,90.535
					c-21.664,24.469-45.219,43.52-67.662,56.086c-22.398,12.685-43.048,18.73-57.508,21.076
					C728.164,953.702,719.819,953.068,719.819,953.068z"/>
			</g>
			<g>
				
					<linearGradient id="SVGID_00000127729516233140246100000008707358598522666129_" gradientUnits="userSpaceOnUse" x1="-320.7484" y1="-5195.9375" x2="-201.286" y2="-5195.9375" gradientTransform="matrix(0.87 -0.493 -0.493 -0.87 -1414.1392 -3635.5393)">
					<stop  offset="0" style="stop-color:#D7E2D6"/>
					<stop  offset="0.4003" style="stop-color:#CBD6C7"/>
					<stop  offset="0.5" style="stop-color:#C7D2C3"/>
					<stop  offset="1" style="stop-color:#A7B3AB"/>
				</linearGradient>
				<path style="fill:url(#SVGID_00000127729516233140246100000008707358598522666129_);" d="M821.142,957.007
					c0,0,7.293-0.137,18.976,0.785c11.806,0.895,27.998,2.079,47.595,6.022c19.51,4.087,43.362,10.716,68.917,26.924
					c25.061,15.449,52.209,44.465,59.112,81.656c-35.776-15.078-62.069-19.818-86.588-28.306
					c-24.095-8.076-45.965-18.812-63.188-31.574c-17.29-12.626-29.336-26.713-36.025-37.503
					C823.229,964.105,821.142,957.007,821.142,957.007z"/>
			</g>
			<g>
				
					<linearGradient id="SVGID_00000019654080314909589570000006677344338394871730_" gradientUnits="userSpaceOnUse" x1="-52.4671" y1="-5044.4214" x2="-357.92" y2="-5148.9805" gradientTransform="matrix(0.87 -0.493 -0.493 -0.87 -1414.1392 -3635.5393)">
					<stop  offset="0" style="stop-color:#D7E2D6"/>
					<stop  offset="0.4003" style="stop-color:#CBD6C7"/>
					<stop  offset="0.5" style="stop-color:#C7D2C3"/>
					<stop  offset="1" style="stop-color:#A7B3AB"/>
				</linearGradient>
				<path style="fill:url(#SVGID_00000019654080314909589570000006677344338394871730_);" d="M850.477,943.763
					c0,0,3.089-5.48,8.298-13.686c5.288-8.185,12.072-19.093,20.65-30.84c8.673-11.801,19.38-24.797,35.706-38.248
					c8.242-6.76,17.6-13.308,29.361-19.934c11.821-7.068,29.05-13.659,44.709-10.962c-8.911,14.354-10.632,26.315-14.207,38.114
					c-3.805,12.302-9.25,23.67-15.663,33.364c-12.823,19.539-30.604,33.271-47.96,40.37c-17.394,7.246-33.491,7.854-44.22,6.3
					C856.351,946.768,850.477,943.763,850.477,943.763z"/>
			</g>
			<g>
				
					<linearGradient id="SVGID_00000003092557502472495970000015485922191476374184_" gradientUnits="userSpaceOnUse" x1="92.0476" y1="-5177.3662" x2="-205.0408" y2="-5177.3662" gradientTransform="matrix(0.87 -0.493 -0.493 -0.87 -1414.1392 -3635.5393)">
					<stop  offset="0" style="stop-color:#D7E2D6"/>
					<stop  offset="0.4003" style="stop-color:#CBD6C7"/>
					<stop  offset="0.5" style="stop-color:#C7D2C3"/>
					<stop  offset="1" style="stop-color:#A7B3AB"/>
				</linearGradient>
				<path style="fill:url(#SVGID_00000003092557502472495970000015485922191476374184_);" d="M947.33,947.642
					c0,0,7.03-4.606,19.932-12.1c12.933-7.45,31.429-17.965,54.613-30.275c23.239-12.248,51.207-26.387,84.352-40.464
					c16.566-7.01,34.518-14.02,53.76-20.542c19.608-7.513,39.616-9.622,56.512-24.199c-2.721,11.106-9.755,21.616-17.909,29.859
					c-8.233,8.328-16.136,15.132-24.278,21.841c-16.177,13.25-32.365,24.569-48.411,34.134
					c-32.036,19.164-63.281,31.039-90.215,37.44c-26.944,6.499-49.406,7.589-64.716,6.929
					C955.642,949.668,947.33,947.642,947.33,947.642z"/>
			</g>
			
				<linearGradient id="SVGID_00000154408322081407089860000011095549982707289261_" gradientUnits="userSpaceOnUse" x1="-814.2476" y1="-4696.9272" x2="-177.7163" y2="-4696.9272" gradientTransform="matrix(0.87 -0.493 -0.493 -0.87 -1414.1392 -3635.5393)">
				<stop  offset="0" style="stop-color:#D7E2D6"/>
				<stop  offset="0.4003" style="stop-color:#CBD6C7"/>
				<stop  offset="0.5" style="stop-color:#C7D2C3"/>
				<stop  offset="1" style="stop-color:#A7B3AB"/>
			</linearGradient>
			<path style="fill:url(#SVGID_00000154408322081407089860000011095549982707289261_);" d="M-6.72,434.384
				c18.255,103.111,65.933,197.281,131.262,276.803c65.951,79.131,151.903,140.646,246.359,180.103
				c23.294,10.732,47.79,18.318,71.865,26.929c24.681,6.651,49.009,14.707,74.147,19.391
				c49.748,11.818,100.613,17.405,151.345,21.946c101.738,7.532,203.877,1.747,304.712-10.923c2.185-0.275,3.735-2.27,3.461-4.455
				c-0.273-2.172-2.276-3.713-4.446-3.464c-100.539,11.619-202.148,16.337-302.872,7.868c-50.21-5.008-100.47-11.027-149.423-23.185
				c-24.762-4.855-48.631-13.051-72.865-19.824c-23.59-8.722-47.601-16.399-70.337-27.163
				c-92.305-39.643-175.424-100.538-238.78-178.093C75.054,622.948,29.41,529.137,13.236,431.963l-0.161-0.976
				c-0.911-5.471-6.084-9.169-11.556-8.259c-5.47,0.912-9.167,6.084-8.256,11.555L-6.72,434.384z"/>
		</g>
	</g>
</g>
</svg>
